<?xml version="1.0" encoding="UTF-8" standalone="no"?>
<!-- Created with Inkscape (http://www.inkscape.org/) -->

<svg
   width="48"
   height="48"
   viewBox="0 0 12.700001 12.7"
   version="1.1"
   id="svg1"
   xml:space="preserve"
   inkscape:version="1.4.4 (dcaf3e7d9e, 2026-05-05)"
   sodipodi:docname="favicon.svg"
   xmlns:inkscape="http://www.inkscape.org/namespaces/inkscape"
   xmlns:sodipodi="http://sodipodi.sourceforge.net/DTD/sodipodi-0.dtd"
   xmlns="http://www.w3.org/2000/svg"
   xmlns:svg="http://www.w3.org/2000/svg"><sodipodi:namedview
     id="namedview1"
     pagecolor="#ffffff"
     bordercolor="#000000"
     borderopacity="0.25"
     inkscape:showpageshadow="2"
     inkscape:pageopacity="0.0"
     inkscape:pagecheckerboard="0"
     inkscape:deskcolor="#d1d1d1"
     inkscape:document-units="mm"
     inkscape:zoom="5.1603716"
     inkscape:cx="26.74226"
     inkscape:cy="77.320013"
     inkscape:window-width="1262"
     inkscape:window-height="1390"
     inkscape:window-x="0"
     inkscape:window-y="0"
     inkscape:window-maximized="1"
     inkscape:current-layer="layer1" /><defs
     id="defs1" /><g
     inkscape:label="Layer 1"
     inkscape:groupmode="layer"
     id="layer1"
     transform="translate(3.3858796,43.106231)"><path
       style="fill:#0d9488;fill-opacity:1;stroke-width:0.0866416"
       d="m -1.2251254,-30.533013 c -0.040022,-0.0174 -0.087719,-0.0557 -0.1059931,-0.08507 -0.018274,-0.02937 -0.1129571,-0.460886 -0.2104288,-0.95891 -0.097462,-0.498021 -0.3463537,-1.756132 -0.5530774,-2.795802 -0.2067238,-1.039668 -0.3758605,-1.927107 -0.3758605,-1.972086 0,-0.106009 0.051058,-0.176634 0.1468393,-0.203076 0.1030202,-0.02845 0.182759,-0.01018 0.2450041,0.05605 0.043173,0.04595 0.079236,0.194379 0.2208875,0.908899 0.2389192,1.205229 0.7059435,3.583606 0.786634,4.006013 0.037324,0.195428 0.078897,0.409479 0.0923724,0.475673 l 0.0244948,0.120357 H 0.78343013 2.5211118 L 2.7106715,-31.9495 c 0.5379976,-2.748855 0.8925253,-4.492726 0.9201368,-4.52602 0.016965,-0.02047 0.065276,-0.05159 0.1073342,-0.06917 0.092825,-0.03879 0.2137346,-0.0076 0.2673193,0.06885 0.049313,0.0704 0.043286,0.169976 -0.033591,0.556527 -0.1311988,0.659682 -0.9613707,4.860205 -1.000013,5.059909 -0.044465,0.229793 -0.090078,0.302426 -0.2109958,0.336011 -0.055194,0.01535 -0.7550848,0.02332 -1.99907107,0.02281 -1.57636528,-6.07e-4 -1.92698773,-0.0063 -1.98691903,-0.03243 z m 1.1156037,-1.209005 c -0.11743265,-0.04343 -0.11757807,-0.08971 -0.001939,-0.559791 0.0492803,-0.200235 0.15372237,-0.627117 0.23210398,-0.948626 0.07838,-0.321506 0.26896565,-1.100347 0.42352665,-1.730754 0.383393,-1.563756 0.77176257,-3.149863 1.02922897,-4.203399 0.1502162,-0.614641 0.2277511,-0.892146 0.2575391,-0.921664 0.023445,-0.02323 0.2953589,-0.129615 0.6042578,-0.23641 0.3089006,-0.106801 0.7988991,-0.276741 1.0888857,-0.377654 0.2899882,-0.100903 0.6327161,-0.220155 0.7616189,-0.264988 0.1836929,-0.06389 0.2467524,-0.0768 0.2916395,-0.05973 0.099498,0.03783 0.1076089,0.224765 0.011957,0.275944 -0.04285,0.02294 -2.0017646,0.711516 -2.3415163,0.823071 -0.084148,0.02763 -0.1626009,0.06255 -0.1743328,0.0776 -0.011795,0.01503 -0.058733,0.1821 -0.1044582,0.371222 -0.07636,0.315913 -0.2287012,0.939238 -0.5910653,2.418474 -0.075665,0.308901 -0.1879633,0.767951 -0.2495411,1.020115 -0.061576,0.252163 -0.21589797,0.881425 -0.34293467,1.39836 -0.1270302,0.516934 -0.3355588,1.367985 -0.46338233,1.891223 -0.12782191,0.523239 -0.24691394,0.968367 -0.26464517,0.989174 -0.0428497,0.05028 -0.0989969,0.063 -0.1670216,0.03784 z m 0.89423963,-0.0023 c -0.040491,-0.02026 -0.059443,-0.05082 -0.064598,-0.104054 -0.00404,-0.04157 0.097494,-0.503994 0.2263649,-1.031053 0.12850047,-0.525618 0.40646427,-1.662298 0.61767987,-2.525956 0.4317944,-1.765605 0.5460602,-2.235365 0.8027074,-3.300022 0.1110666,-0.460763 0.1924163,-0.75356 0.2136715,-0.769103 0.018872,-0.01373 0.5209611,-0.193433 1.1157426,-0.399176 0.9329013,-0.322705 1.0890634,-0.370598 1.137077,-0.348722 0.1257376,0.05729 0.1137649,0.233059 -0.019615,0.288285 -0.072434,0.02999 -1.6900866,0.592219 -1.8966585,0.6592 -0.091823,0.02978 -0.1048621,0.04283 -0.1229424,0.123233 -0.027823,0.123686 -0.5594353,2.312526 -0.90988,3.7463 -0.1744379,0.71367 -0.5461507,2.229509 -0.7496785,3.057164 -0.070883,0.28824 -0.14507817,0.542659 -0.16486617,0.565375 -0.050557,0.05802 -0.117982,0.07206 -0.1850001,0.03853 z m 4.66631747,-9.099143 c -0.087994,-0.125625 -0.011957,-0.247255 0.1651134,-0.264275 0.2080519,-0.01999 0.3035281,0.03168 0.3035281,0.164304 0,0.118676 -0.055194,0.150927 -0.2584003,0.150927 -0.1544009,0 -0.1786776,-0.0058 -0.2102412,-0.05094 z m 0.8711101,0 c -0.051639,-0.07371 -0.043932,-0.149198 0.021942,-0.215077 l 0.057634,-0.05763 0.4487694,0.0071 c 0.4399572,0.0069 0.4496275,0.0081 0.4925466,0.06121 0.053077,0.06562 0.055873,0.136191 0.00808,0.204407 -0.034933,0.04988 -0.045693,0.05094 -0.5144885,0.05094 -0.4687934,0 -0.4795479,-0.0011 -0.5144868,-0.05094 z m -2.0759161,-0.843083 c -0.025464,-0.02547 -0.045839,-0.07641 -0.045839,-0.114622 0,-0.03821 0.020375,-0.08914 0.045839,-0.114621 0.043237,-0.04324 0.076409,-0.04585 0.5810072,-0.04585 0.5071901,0 0.5373416,0.0024 0.5769194,0.04615 0.022976,0.02538 0.041751,0.07683 0.041751,0.11433 0,0.0375 -0.018791,0.08895 -0.041751,0.114331 -0.039586,0.04374 -0.069736,0.04615 -0.5769194,0.04615 -0.5045936,0 -0.5377762,-0.0026 -0.5810072,-0.04585 z m 1.9536346,0.01018 c -0.037922,-0.02656 -0.050945,-0.05867 -0.050945,-0.12556 0,-0.147922 0.042914,-0.162037 0.4701216,-0.154563 l 0.3617243,0.0063 0.045548,0.06104 c 0.050169,0.06723 0.042559,0.150474 -0.019405,0.212437 -0.05269,0.05269 -0.7318778,0.05293 -0.8070263,2.6e-4 z m 1.4889839,-0.004 c -0.079333,-0.0671 -0.086717,-0.154788 -0.018726,-0.222769 l 0.058458,-0.05846 h 0.5266535 c 0.4479987,0 0.5320306,0.0053 0.5626442,0.03598 0.06198,0.06198 0.069574,0.145207 0.019389,0.21244 l -0.045564,0.06104 -0.5274743,0.0061 c -0.4765038,0.0055 -0.5321033,0.0023 -0.5753957,-0.03438 z m -2.7205144,-0.83588 c -0.063854,-0.03621 -0.079479,-0.0649 -0.079883,-0.14671 -6.932e-4,-0.145563 0.00614,-0.146823 0.7967615,-0.146823 0.7110831,0 0.7133758,1.73e-4 0.748953,0.05094 0.054742,0.07817 0.044789,0.1678 -0.024721,0.222474 -0.058022,0.04563 -0.086766,0.04749 -0.7278336,0.04681 -0.4541337,-4.33e-4 -0.6820868,-0.009 -0.7132821,-0.02669 z m 2.1971798,-0.04493 c -0.1267394,-0.03424 -0.1469201,-0.228968 -0.029875,-0.288199 0.039812,-0.02015 0.2058884,-0.0286 0.5663766,-0.02884 0.4797369,-3.48e-4 0.5127822,0.0024 0.5559049,0.04552 0.060784,0.06079 0.060591,0.185873 -3.457e-4,0.241044 -0.041363,0.03744 -0.09743,0.04227 -0.5329823,0.04592 -0.2677135,0.0023 -0.5192841,-0.0047 -0.5590428,-0.01551 z"
       id="path4"
       sodipodi:nodetypes="csssssscsscccsssssssccccscsssscssssssssssccssscscssssssssscsssccscssssccssssssssscsccsscccscscsccccscscscscscccccc" /></g></svg>
