<?xml version="1.0" encoding="UTF-8" standalone="no"?>
<!-- Created with Inkscape (http://www.inkscape.org/) -->

<svg
   width="584.58185"
   height="770.00037"
   viewBox="0 0 154.67061 203.72926"
   version="1.1"
   id="svg1"
   xml:space="preserve"
   inkscape:version="1.4.4 (dcaf3e7d9e, 2026-05-05)"
   sodipodi:docname="logo.svg"
   xmlns:inkscape="http://www.inkscape.org/namespaces/inkscape"
   xmlns:sodipodi="http://sodipodi.sourceforge.net/DTD/sodipodi-0.dtd"
   xmlns="http://www.w3.org/2000/svg"
   xmlns:svg="http://www.w3.org/2000/svg"><sodipodi:namedview
     id="namedview1"
     pagecolor="#ffffff"
     bordercolor="#000000"
     borderopacity="0.25"
     inkscape:showpageshadow="2"
     inkscape:pageopacity="0.0"
     inkscape:pagecheckerboard="0"
     inkscape:deskcolor="#d1d1d1"
     inkscape:document-units="mm"
     inkscape:zoom="0.64504644"
     inkscape:cx="130.22318"
     inkscape:cy="506.94025"
     inkscape:window-width="2560"
     inkscape:window-height="1440"
     inkscape:window-x="0"
     inkscape:window-y="0"
     inkscape:window-maximized="1"
     inkscape:current-layer="layer1" /><defs
     id="defs1" /><g
     inkscape:label="Layer 1"
     inkscape:groupmode="layer"
     id="layer1"
     transform="translate(-21.936809,-40.225926)"><path
       style="fill:#0d9488;fill-opacity:1"
       d="M 158.46181,231.65203 V 219.3489 h 1.05833 1.05834 l 0.0293,1.12448 c 0.0161,0.61846 0.008,1.39237 -0.0189,1.71979 -0.0265,0.32742 -0.004,0.59531 0.0502,0.59531 0.0541,0 0.75813,-0.639 1.56447,-1.42 1.90114,-1.8414 3.46503,-2.39614 6.279,-2.22729 3.34305,0.20059 5.94606,1.97676 7.21815,4.92532 2.18556,5.06588 0.28528,10.86379 -4.25135,12.97125 -2.13415,0.99142 -5.14741,0.97016 -7.23466,-0.051 -0.80967,-0.39613 -1.89919,-1.19295 -2.42115,-1.7707 -0.52196,-0.57775 -0.9791,-1.05069 -1.01586,-1.05099 -0.0368,-3e-4 -0.0275,1.33916 0.0206,2.97656 0.0481,1.63741 0.008,3.84031 -0.0887,4.89533 l -0.17615,1.91823 h -1.03576 -1.03576 z m 11.21966,3.81122 c 1.52505,-0.42343 3.62821,-2.64448 4.20142,-4.43692 0.52526,-1.64252 0.56473,-2.66803 0.17299,-4.49462 -1.12272,-5.23511 -7.11672,-7.26115 -10.97105,-3.70836 -1.68922,1.55708 -2.33256,3.06214 -2.35268,5.504 -0.0273,3.30998 1.52441,5.83488 4.23673,6.89404 1.47131,0.57455 3.19563,0.66304 4.71259,0.24186 z m -80.431767,2.03099 c -1.72885,-0.39453 -4.464511,-1.65929 -5.866631,-2.7123 l -0.86311,-0.64821 1.25999,-1.62488 c 0.69299,-0.89369 1.39073,-1.79765 1.55053,-2.00882 0.24604,-0.32513 0.47444,-0.25741 1.491241,0.44217 2.12184,1.45987 3.77369,1.97594 6.4203,2.00584 2.7398,0.0309 3.82339,-0.38382 4.35488,-1.66697 0.81028,-1.95617 -0.46433,-2.95753 -5.3941,-4.23773 -5.24863,-1.363 -7.361061,-2.63881 -8.270171,-4.99479 -0.59718,-1.5476 -0.60802,-4.55269 -0.0213,-5.91157 0.6669,-1.54466 2.17562,-2.99956 3.969781,-3.82815 1.58493,-0.73196 1.81739,-0.76444 5.36094,-0.74897 3.2399,0.0141 3.90313,0.0942 5.29166,0.63879 2.171057,0.85151 4.145187,2.09624 3.928947,2.4773 -0.0959,0.16903 -0.71155,1.08123 -1.36807,2.02712 -0.65652,0.94588 -1.211797,1.7478 -1.233957,1.78203 -0.0222,0.0342 -0.98608,-0.42097 -2.14205,-1.01157 -3.15089,-1.60983 -6.54662,-1.76713 -7.94568,-0.36808 -0.62207,0.62207 -0.81674,1.71846 -0.46697,2.62996 0.2252,0.58686 1.77371,1.33877 3.81969,1.85472 3.36038,0.84741 6.53579,2.02249 7.619967,2.81981 0.60685,0.44628 1.429,1.36535 1.82699,2.04238 0.63515,1.08044 0.72363,1.50594 0.72363,3.47992 0,2.00374 -0.0865,2.40533 -0.79375,3.68315 -0.8822,1.59401 -2.509247,2.93906 -4.365617,3.60899 -1.64826,0.59481 -6.78023,0.75065 -8.88711,0.26986 z m 37.065227,0.14469 c -2.21132,-0.58458 -3.84643,-2.15585 -4.48656,-4.3114 -0.31813,-1.07129 -0.40823,-2.76883 -0.40823,-7.69186 v -6.31719 l 1.12448,0.0813 1.12448,0.0814 0.13229,6.63594 0.13229,6.63594 0.76506,1.00228 c 2.26078,2.96179 7.38021,2.49434 9.34822,-0.85358 l 0.73464,-1.24974 0.0837,-6.15157 0.0837,-6.15156 h 1.1765 1.17651 l -0.0696,9.06198 -0.0696,9.06198 h -1.05833 -1.05834 v -1.52184 c 0,-0.83701 -0.0595,-1.52161 -0.13229,-1.52134 -0.0728,2.7e-4 -0.44199,0.38864 -0.82052,0.86304 -1.09931,1.37776 -3.10878,2.32498 -5.19632,2.44943 -0.9836,0.0586 -2.14555,0.0122 -2.58212,-0.10322 z M 22.121871,237.43744 c -0.101784,-0.10179 -0.185062,-5.93975 -0.185062,-12.97326 v -12.7882 h 2.904704 2.904703 l 0.07186,5.09323 0.07186,5.09323 5.754688,0.0713 5.754687,0.0713 v -5.16453 -5.16454 h 2.912934 2.912929 l -0.0687,12.89844 -0.0687,12.89844 h -2.778126 -2.778125 l -0.07186,-5.09323 -0.07186,-5.09323 h -5.809407 -5.809407 l -0.07186,5.09323 -0.07186,5.09323 -2.659209,0.0748 c -1.462565,0.0412 -2.742487,-0.008 -2.844271,-0.11024 z m 40.233111,-10.21718 -0.0692,-10.3849 -4.0349,-0.073 -4.0349,-0.073 v -2.50665 -2.50666 h 10.98021 10.98021 v 2.51355 2.51354 h -4.10104 -4.10104 v 10.45104 10.45104 h -2.77506 -2.77505 z m 49.993728,10.22109 c -0.10394,-0.10393 -0.18898,-6.01004 -0.18898,-13.12468 v -12.93569 l 1.12447,0.0813 1.12448,0.0814 v 12.96459 12.96458 l -0.93549,0.0787 c -0.51453,0.0433 -1.02054,-0.006 -1.12448,-0.11025 z m 31.56102,-8.96432 v -9.15855 l 1.12448,0.0813 1.12447,0.0814 v 1.78607 c 0,0.98233 0.0622,1.78601 0.13827,1.78594 0.0761,-7e-5 0.36285,-0.41714 0.63732,-0.92681 0.93588,-1.73782 3.18893,-3.00787 5.37598,-3.03046 l 1.12448,-0.0116 v 1.02132 1.02131 l -1.42544,0.14712 c -2.2944,0.2368 -3.85392,1.32325 -5.01731,3.49532 -0.51829,0.96767 -0.58044,1.57785 -0.701,6.88264 l -0.1323,5.82083 -1.12447,0.0814 -1.12448,0.0814 z M 53.508342,195.15034 c -0.46196,-0.20094 -1.01243,-0.64277 -1.22328,-0.98183 -0.21084,-0.33907 -1.30377,-5.31945 -2.42873,-11.06753 -1.12496,-5.74807 -3.99753,-20.26893 -6.383495,-32.26859 -2.385961,-11.99965 -4.338111,-22.2423 -4.338111,-22.76144 0,-1.22356 0.589349,-2.03866 1.694715,-2.34386 1.189082,-0.32832 2.109372,-0.11778 2.827791,0.64694 0.49829,0.53041 0.91462,2.24349 2.54943,10.49034 2.75756,13.91051 8.14787,41.36126 9.07917,46.23661 0.43086,2.25558 0.91063,4.72612 1.06615,5.49011 l 0.28276,1.38906 h 20.05599 20.055981 l 2.18785,-11.17865 c 6.209467,-31.72673 10.301357,-51.85415 10.620037,-52.23843 0.19589,-0.23621 0.75333,-0.59549 1.23875,-0.79839 1.07131,-0.44781 2.46688,-0.0884 3.08535,0.79459 0.56906,0.81245 0.49969,1.96185 -0.38763,6.42332 -1.51431,7.61393 -11.09594,56.09554 -11.54194,58.40047 -0.51321,2.65224 -1.03962,3.49054 -2.435287,3.87817 -0.637,0.17691 -8.71503,0.26911 -23.072871,0.26334 -18.1941,-0.007 -22.24092,-0.0734 -22.93263,-0.37423 z m 12.87607,-13.95411 c -1.35528,-0.50135 -1.35708,-1.03534 -0.0219,-6.46099 0.56875,-2.31108 1.77425,-7.23806 2.67889,-10.94884 0.90463,-3.71078 3.10435,-12.7 4.88826,-19.97604 4.42505,-18.04855 8.90753,-36.35508 11.87916,-48.514794 1.733671,-7.09406 2.628661,-10.29697 2.972471,-10.63765 0.27056,-0.2681 3.40896,-1.49597 6.97422,-2.7286 3.56526,-1.23263 9.220727,-3.19409 12.567707,-4.3588 3.34698,-1.16471 7.30268,-2.541 8.79045,-3.05844 2.12015,-0.73736 2.84796,-0.88644 3.36605,-0.68946 1.14836,0.4366 1.24206,2.59419 0.13831,3.18489 -0.49466,0.26474 -23.103967,8.21218 -27.025307,9.49971 -0.97125,0.31891 -1.87671,0.72195 -2.01213,0.89565 -0.13542,0.1737 -0.67792,2.10176 -1.20555,4.28457 -0.88136,3.6462 -2.63962,10.840484 -6.821961,27.913544 -0.87337,3.56526 -2.16944,8.86354 -2.88015,11.77396 -0.71071,2.91042 -2.49185,10.17323 -3.95809,16.13959 -1.46624,5.96635 -3.87296,15.78901 -5.34827,21.82812 -1.47531,6.03912 -2.84983,11.1767 -3.05448,11.41685 -0.49454,0.58031 -1.14266,0.72715 -1.92773,0.43673 z m 10.32115,-0.0253 c -0.46725,-0.2338 -0.68616,-0.58643 -0.74558,-1.20106 -0.0464,-0.47986 1.12536,-5.81701 2.61265,-11.90021 1.48323,-6.06658 4.69134,-19.18592 7.12915,-29.15409 4.983681,-20.37826 6.302511,-25.80012 9.264681,-38.0882 1.28197,-5.318034 2.22084,-8.697434 2.46616,-8.876824 0.21788,-0.15931 6.012827,-2.23256 12.877677,-4.60722 10.76737,-3.7246 12.56976,-4.27736 13.12392,-4.02487 1.45118,0.6612 1.31311,2.68991 -0.22646,3.32733 -0.83599,0.34613 -19.50663,6.83526 -21.89084,7.60835 -1.05985,0.34366 -1.21026,0.49443 -1.418987,1.42239 -0.3211,1.42756 -6.45688,26.690724 -10.50165,43.239044 -2.01332,8.23704 -6.303571,25.73256 -8.652641,35.28519 -0.81809,3.3268 -1.67437,6.26325 -1.90286,6.52544 -0.58355,0.66964 -1.36178,0.83173 -2.13522,0.44473 z M 130.56327,76.150436 c -1.01564,-1.45003 -0.13861,-2.85378 1.9057,-3.05022 2.4013,-0.23073 3.50326,0.36577 3.50326,1.89636 0,1.3698 -0.6371,1.7419 -2.9824,1.7419 -1.78198,0 -2.06226,-0.0679 -2.42656,-0.58804 z m 10.05417,0 c -0.59595,-0.85083 -0.50707,-1.72207 0.25324,-2.48238 l 0.66512,-0.66512 5.1796,0.0818 c 5.0779,0.0802 5.18952,0.0941 5.68488,0.70646 0.61261,0.75731 0.64486,1.57189 0.0934,2.35921 -0.40327,0.57575 -0.52739,0.58804 -5.93812,0.58804 -5.41073,0 -5.53485,-0.0123 -5.93812,-0.58804 z m -23.9598,-9.73071 c -0.29398,-0.29398 -0.52916,-0.88194 -0.52916,-1.32291 0,-0.44098 0.23518,-1.02894 0.52916,-1.32292 0.49895,-0.49895 0.88195,-0.52917 6.70587,-0.52917 5.85388,0 6.20189,0.0278 6.65868,0.53258 0.26509,0.29292 0.48198,0.8867 0.48198,1.31951 0,0.4328 -0.21689,1.02658 -0.48198,1.3195 -0.45679,0.50474 -0.8048,0.53258 -6.65868,0.53258 -5.82392,0 -6.20692,-0.0302 -6.70587,-0.52917 z m 22.54846,0.11729 c -0.43762,-0.30652 -0.58804,-0.6772 -0.58804,-1.44911 0,-1.70737 0.49528,-1.8702 5.42605,-1.78393 l 4.17495,0.073 0.52563,0.70458 c 0.57895,0.77604 0.49117,1.7367 -0.22405,2.45192 -0.60806,0.60806 -8.4472,0.61101 -9.31454,0.003 z m 17.18555,-0.0464 c -0.91572,-0.7745 -1.0008,-1.78653 -0.21617,-2.57117 l 0.67478,-0.67477 h 6.07854 c 5.17071,0 6.14058,0.062 6.49392,0.41538 0.71532,0.71531 0.80302,1.67589 0.22386,2.45193 l -0.52582,0.70457 -6.088,0.0709 c -5.49971,0.0641 -6.14144,0.0257 -6.64111,-0.39687 z m -31.39963,-9.64752 c -0.73701,-0.41793 -0.91732,-0.74909 -0.92199,-1.69335 -0.008,-1.6801 0.0706,-1.69465 9.19605,-1.69465 8.20718,0 8.23365,0.002 8.64427,0.58804 0.6319,0.90216 0.51697,1.93672 -0.28526,2.56775 -0.6696,0.52671 -1.00145,0.54806 -8.40052,0.54033 -5.24152,-0.005 -7.8725,-0.10394 -8.23255,-0.30812 z m 25.35941,-0.51867 c -1.46278,-0.39515 -1.6958,-2.6427 -0.34486,-3.32634 0.45942,-0.23248 2.37633,-0.33008 6.53701,-0.33284 5.53703,-0.004 5.91844,0.0275 6.41615,0.52527 0.70151,0.70151 0.69924,2.14531 -0.004,2.78208 -0.47742,0.43206 -1.12456,0.48782 -6.15157,0.53003 -3.0899,0.0259 -5.99347,-0.0542 -6.45235,-0.1782 z m 10.28592,-12.80621 c -0.4317,-0.30237 -0.58804,-0.67836 -0.58804,-1.4142 0,-1.84795 0.11961,-1.87809 7.45431,-1.87809 6.14732,0 6.5116,0.0276 6.96476,0.52837 0.65547,0.72428 0.58064,2.12313 -0.14501,2.71072 -0.51181,0.41444 -1.25618,0.46508 -6.83617,0.46508 -5.23921,0 -6.35785,-0.0673 -6.84985,-0.41188 z"
       id="path4" /></g></svg>
